{
	"asset": {
		"generator": "Khronos glTF Blender I/O v4.0.44",
		"version": "2.0"
	},
	"scene": 0,
	"scenes": [
		{
			"name": "Scene",
			"nodes": [0, 1, 2, 3, 4, 5, 6, 7, 8]
		}
	],
	"nodes": [
		{
			"mesh": 0,
			"name": "Cup.001"
		},
		{
			"mesh": 1,
			"name": "Handle.001"
		},
		{
			"mesh": 2,
			"name": "Plate.001"
		},
		{
			"mesh": 3,
			"name": "Coffee.001"
		},
		{
			"mesh": 4,
			"name": "Bubble.001"
		},
		{
			"mesh": 5,
			"name": "Bubble.002"
		},
		{
			"mesh": 6,
			"name": "Bubble.003"
		},
		{
			"mesh": 7,
			"name": "Book.001"
		},
		{
			"mesh": 8,
			"name": "Book.002"
		}
	],
	"materials": [
		{
			"doubleSided": true,
			"name": "Material",
			"pbrMetallicRoughness": {
				"baseColorFactor": [0.800000011920929, 0.800000011920929, 0.800000011920929, 1],
				"metallicFactor": 0,
				"roughnessFactor": 0.5
			}
		},
		{
			"doubleSided": true,
			"name": "Material.001",
			"pbrMetallicRoughness": {
				"baseColorFactor": [
					0.27799999713897705, 0.07176847755908966, 0.04364600032567978, 1
				],
				"metallicFactor": 0,
				"roughnessFactor": 0.5
			}
		},
		{
			"doubleSided": true,
			"name": "Material.003",
			"pbrMetallicRoughness": {
				"baseColorFactor": [
					0.04968897998332977, 0.04968897998332977, 0.04968897998332977, 1
				],
				"metallicFactor": 0,
				"roughnessFactor": 0.5
			}
		},
		{
			"doubleSided": true,
			"name": "Material.002",
			"pbrMetallicRoughness": {
				"baseColorFactor": [0.800000011920929, 0.302079439163208, 0.1599999964237213, 1],
				"metallicFactor": 0,
				"roughnessFactor": 0.5
			}
		}
	],
	"meshes": [
		{
			"name": "Cylinder",
			"primitives": [
				{
					"attributes": {
						"POSITION": 0,
						"NORMAL": 1,
						"TEXCOORD_0": 2
					},
					"indices": 3,
					"material": 0
				}
			]
		},
		{
			"name": "Cube.003",
			"primitives": [
				{
					"attributes": {
						"POSITION": 4,
						"NORMAL": 5,
						"TEXCOORD_0": 6
					},
					"indices": 7,
					"material": 0
				}
			]
		},
		{
			"name": "Cylinder.001",
			"primitives": [
				{
					"attributes": {
						"POSITION": 8,
						"NORMAL": 9,
						"TEXCOORD_0": 10
					},
					"indices": 11,
					"material": 0
				}
			]
		},
		{
			"name": "Cylinder.002",
			"primitives": [
				{
					"attributes": {
						"POSITION": 12,
						"NORMAL": 13,
						"TEXCOORD_0": 14
					},
					"indices": 15,
					"material": 1
				}
			]
		},
		{
			"name": "Sphere",
			"primitives": [
				{
					"attributes": {
						"POSITION": 16,
						"NORMAL": 17,
						"TEXCOORD_0": 18
					},
					"indices": 19,
					"material": 0
				}
			]
		},
		{
			"name": "Sphere.001",
			"primitives": [
				{
					"attributes": {
						"POSITION": 20,
						"NORMAL": 21,
						"TEXCOORD_0": 22
					},
					"indices": 23,
					"material": 0
				}
			]
		},
		{
			"name": "Sphere.002",
			"primitives": [
				{
					"attributes": {
						"POSITION": 24,
						"NORMAL": 25,
						"TEXCOORD_0": 26
					},
					"indices": 27,
					"material": 0
				}
			]
		},
		{
			"name": "Cube.004",
			"primitives": [
				{
					"attributes": {
						"POSITION": 28,
						"NORMAL": 29,
						"TEXCOORD_0": 30
					},
					"indices": 31,
					"material": 2
				},
				{
					"attributes": {
						"POSITION": 32,
						"NORMAL": 33,
						"TEXCOORD_0": 34
					},
					"indices": 35,
					"material": 0
				}
			]
		},
		{
			"name": "Cube.005",
			"primitives": [
				{
					"attributes": {
						"POSITION": 36,
						"NORMAL": 37,
						"TEXCOORD_0": 38
					},
					"indices": 39,
					"material": 3
				},
				{
					"attributes": {
						"POSITION": 40,
						"NORMAL": 41,
						"TEXCOORD_0": 42
					},
					"indices": 43,
					"material": 0
				}
			]
		}
	],
	"accessors": [
		{
			"bufferView": 0,
			"componentType": 5126,
			"count": 7324,
			"max": [0.9935951828956604, 0.9983353018760681, 0.9935951828956604],
			"min": [-0.9935951828956604, -0.9458031058311462, -0.9935952425003052],
			"type": "VEC3"
		},
		{
			"bufferView": 1,
			"componentType": 5126,
			"count": 7324,
			"type": "VEC3"
		},
		{
			"bufferView": 2,
			"componentType": 5126,
			"count": 7324,
			"type": "VEC2"
		},
		{
			"bufferView": 3,
			"componentType": 5123,
			"count": 41472,
			"type": "SCALAR"
		},
		{
			"bufferView": 4,
			"componentType": 5126,
			"count": 1106,
			"max": [1.5367765426635742, 0.4522647559642792, 0.1288505643606186],
			"min": [0.8990576267242432, -0.4522647559642792, -0.1288505643606186],
			"type": "VEC3"
		},
		{
			"bufferView": 5,
			"componentType": 5126,
			"count": 1106,
			"type": "VEC3"
		},
		{
			"bufferView": 6,
			"componentType": 5126,
			"count": 1106,
			"type": "VEC2"
		},
		{
			"bufferView": 7,
			"componentType": 5123,
			"count": 5952,
			"type": "SCALAR"
		},
		{
			"bufferView": 8,
			"componentType": 5126,
			"count": 1290,
			"max": [1.8439297676086426, -0.886515200138092, 1.8439297676086426],
			"min": [-1.8439297676086426, -1.0809398889541626, -1.8439300060272217],
			"type": "VEC3"
		},
		{
			"bufferView": 9,
			"componentType": 5126,
			"count": 1290,
			"type": "VEC3"
		},
		{
			"bufferView": 10,
			"componentType": 5126,
			"count": 1290,
			"type": "VEC2"
		},
		{
			"bufferView": 11,
			"componentType": 5123,
			"count": 6528,
			"type": "SCALAR"
		},
		{
			"bufferView": 12,
			"componentType": 5126,
			"count": 3631,
			"max": [0.8300692439079285, 0.9814953804016113, 0.8300692439079285],
			"min": [-0.8300692439079285, -0.8309422135353088, -0.8300692439079285],
			"type": "VEC3"
		},
		{
			"bufferView": 13,
			"componentType": 5126,
			"count": 3631,
			"type": "VEC3"
		},
		{
			"bufferView": 14,
			"componentType": 5126,
			"count": 3631,
			"type": "VEC2"
		},
		{
			"bufferView": 15,
			"componentType": 5123,
			"count": 19968,
			"type": "SCALAR"
		},
		{
			"bufferView": 16,
			"componentType": 5126,
			"count": 559,
			"max": [-0.050317902117967606, 1.8569004535675049, 0.7066023349761963],
			"min": [-0.8407182097434998, 1.0664995908737183, -0.08379817754030228],
			"type": "VEC3"
		},
		{
			"bufferView": 17,
			"componentType": 5126,
			"count": 559,
			"type": "VEC3"
		},
		{
			"bufferView": 18,
			"componentType": 5126,
			"count": 559,
			"type": "VEC2"
		},
		{
			"bufferView": 19,
			"componentType": 5123,
			"count": 2880,
			"type": "SCALAR"
		},
		{
			"bufferView": 20,
			"componentType": 5126,
			"count": 559,
			"max": [0.8736255764961243, 1.6895745992660522, -0.13300171494483948],
			"min": [0.2677023112773895, 1.083651065826416, -0.7389251589775085],
			"type": "VEC3"
		},
		{
			"bufferView": 21,
			"componentType": 5126,
			"count": 559,
			"type": "VEC3"
		},
		{
			"bufferView": 22,
			"componentType": 5126,
			"count": 559,
			"type": "VEC2"
		},
		{
			"bufferView": 23,
			"componentType": 5123,
			"count": 2880,
			"type": "SCALAR"
		},
		{
			"bufferView": 24,
			"componentType": 5126,
			"count": 559,
			"max": [0.33804741501808167, 2.4655213356018066, 0.4322225749492645],
			"min": [-0.12780269980430603, 1.9996709823608398, -0.03362773731350899],
			"type": "VEC3"
		},
		{
			"bufferView": 25,
			"componentType": 5126,
			"count": 559,
			"type": "VEC3"
		},
		{
			"bufferView": 26,
			"componentType": 5126,
			"count": 559,
			"type": "VEC2"
		},
		{
			"bufferView": 27,
			"componentType": 5123,
			"count": 2880,
			"type": "SCALAR"
		},
		{
			"bufferView": 28,
			"componentType": 5126,
			"count": 5818,
			"max": [-1.720881462097168, -0.7084087133407593, 0.3382696807384491],
			"min": [-4.586179256439209, -1.0841113328933716, -2.935012102127075],
			"type": "VEC3"
		},
		{
			"bufferView": 29,
			"componentType": 5126,
			"count": 5818,
			"type": "VEC3"
		},
		{
			"bufferView": 30,
			"componentType": 5126,
			"count": 5818,
			"type": "VEC2"
		},
		{
			"bufferView": 31,
			"componentType": 5123,
			"count": 7200,
			"type": "SCALAR"
		},
		{
			"bufferView": 32,
			"componentType": 5126,
			"count": 1939,
			"max": [-1.7894511222839355, -0.7759922742843628, 0.25943872332572937],
			"min": [-4.449256420135498, -1.0152848958969116, -2.823970079421997],
			"type": "VEC3"
		},
		{
			"bufferView": 33,
			"componentType": 5126,
			"count": 1939,
			"type": "VEC3"
		},
		{
			"bufferView": 34,
			"componentType": 5126,
			"count": 1939,
			"type": "VEC2"
		},
		{
			"bufferView": 35,
			"componentType": 5123,
			"count": 2592,
			"type": "SCALAR"
		},
		{
			"bufferView": 36,
			"componentType": 5126,
			"count": 5830,
			"max": [-1.4652392864227295, -0.3335728645324707, 0.2869260609149933],
			"min": [-4.843570232391357, -0.7092753052711487, -2.8792834281921387],
			"type": "VEC3"
		},
		{
			"bufferView": 37,
			"componentType": 5126,
			"count": 5830,
			"type": "VEC3"
		},
		{
			"bufferView": 38,
			"componentType": 5126,
			"count": 5830,
			"type": "VEC2"
		},
		{
			"bufferView": 39,
			"componentType": 5123,
			"count": 7200,
			"type": "SCALAR"
		},
		{
			"bufferView": 40,
			"componentType": 5126,
			"count": 1938,
			"max": [-1.545642375946045, -0.40115639567375183, 0.2104371190071106],
			"min": [-4.716575622558594, -0.6404489278793335, -2.7442610263824463],
			"type": "VEC3"
		},
		{
			"bufferView": 41,
			"componentType": 5126,
			"count": 1938,
			"type": "VEC3"
		},
		{
			"bufferView": 42,
			"componentType": 5126,
			"count": 1938,
			"type": "VEC2"
		},
		{
			"bufferView": 43,
			"componentType": 5123,
			"count": 2592,
			"type": "SCALAR"
		}
	],
	"bufferViews": [
		{
			"buffer": 0,
			"byteLength": 87888,
			"byteOffset": 0,
			"target": 34962
		},
		{
			"buffer": 0,
			"byteLength": 87888,
			"byteOffset": 87888,
			"target": 34962
		},
		{
			"buffer": 0,
			"byteLength": 58592,
			"byteOffset": 175776,
			"target": 34962
		},
		{
			"buffer": 0,
			"byteLength": 82944,
			"byteOffset": 234368,
			"target": 34963
		},
		{
			"buffer": 0,
			"byteLength": 13272,
			"byteOffset": 317312,
			"target": 34962
		},
		{
			"buffer": 0,
			"byteLength": 13272,
			"byteOffset": 330584,
			"target": 34962
		},
		{
			"buffer": 0,
			"byteLength": 8848,
			"byteOffset": 343856,
			"target": 34962
		},
		{
			"buffer": 0,
			"byteLength": 11904,
			"byteOffset": 352704,
			"target": 34963
		},
		{
			"buffer": 0,
			"byteLength": 15480,
			"byteOffset": 364608,
			"target": 34962
		},
		{
			"buffer": 0,
			"byteLength": 15480,
			"byteOffset": 380088,
			"target": 34962
		},
		{
			"buffer": 0,
			"byteLength": 10320,
			"byteOffset": 395568,
			"target": 34962
		},
		{
			"buffer": 0,
			"byteLength": 13056,
			"byteOffset": 405888,
			"target": 34963
		},
		{
			"buffer": 0,
			"byteLength": 43572,
			"byteOffset": 418944,
			"target": 34962
		},
		{
			"buffer": 0,
			"byteLength": 43572,
			"byteOffset": 462516,
			"target": 34962
		},
		{
			"buffer": 0,
			"byteLength": 29048,
			"byteOffset": 506088,
			"target": 34962
		},
		{
			"buffer": 0,
			"byteLength": 39936,
			"byteOffset": 535136,
			"target": 34963
		},
		{
			"buffer": 0,
			"byteLength": 6708,
			"byteOffset": 575072,
			"target": 34962
		},
		{
			"buffer": 0,
			"byteLength": 6708,
			"byteOffset": 581780,
			"target": 34962
		},
		{
			"buffer": 0,
			"byteLength": 4472,
			"byteOffset": 588488,
			"target": 34962
		},
		{
			"buffer": 0,
			"byteLength": 5760,
			"byteOffset": 592960,
			"target": 34963
		},
		{
			"buffer": 0,
			"byteLength": 6708,
			"byteOffset": 598720,
			"target": 34962
		},
		{
			"buffer": 0,
			"byteLength": 6708,
			"byteOffset": 605428,
			"target": 34962
		},
		{
			"buffer": 0,
			"byteLength": 4472,
			"byteOffset": 612136,
			"target": 34962
		},
		{
			"buffer": 0,
			"byteLength": 5760,
			"byteOffset": 616608,
			"target": 34963
		},
		{
			"buffer": 0,
			"byteLength": 6708,
			"byteOffset": 622368,
			"target": 34962
		},
		{
			"buffer": 0,
			"byteLength": 6708,
			"byteOffset": 629076,
			"target": 34962
		},
		{
			"buffer": 0,
			"byteLength": 4472,
			"byteOffset": 635784,
			"target": 34962
		},
		{
			"buffer": 0,
			"byteLength": 5760,
			"byteOffset": 640256,
			"target": 34963
		},
		{
			"buffer": 0,
			"byteLength": 69816,
			"byteOffset": 646016,
			"target": 34962
		},
		{
			"buffer": 0,
			"byteLength": 69816,
			"byteOffset": 715832,
			"target": 34962
		},
		{
			"buffer": 0,
			"byteLength": 46544,
			"byteOffset": 785648,
			"target": 34962
		},
		{
			"buffer": 0,
			"byteLength": 14400,
			"byteOffset": 832192,
			"target": 34963
		},
		{
			"buffer": 0,
			"byteLength": 23268,
			"byteOffset": 846592,
			"target": 34962
		},
		{
			"buffer": 0,
			"byteLength": 23268,
			"byteOffset": 869860,
			"target": 34962
		},
		{
			"buffer": 0,
			"byteLength": 15512,
			"byteOffset": 893128,
			"target": 34962
		},
		{
			"buffer": 0,
			"byteLength": 5184,
			"byteOffset": 908640,
			"target": 34963
		},
		{
			"buffer": 0,
			"byteLength": 69960,
			"byteOffset": 913824,
			"target": 34962
		},
		{
			"buffer": 0,
			"byteLength": 69960,
			"byteOffset": 983784,
			"target": 34962
		},
		{
			"buffer": 0,
			"byteLength": 46640,
			"byteOffset": 1053744,
			"target": 34962
		},
		{
			"buffer": 0,
			"byteLength": 14400,
			"byteOffset": 1100384,
			"target": 34963
		},
		{
			"buffer": 0,
			"byteLength": 23256,
			"byteOffset": 1114784,
			"target": 34962
		},
		{
			"buffer": 0,
			"byteLength": 23256,
			"byteOffset": 1138040,
			"target": 34962
		},
		{
			"buffer": 0,
			"byteLength": 15504,
			"byteOffset": 1161296,
			"target": 34962
		},
		{
			"buffer": 0,
			"byteLength": 5184,
			"byteOffset": 1176800,
			"target": 34963
		}
	],
	"buffers": [
		{
			"byteLength": 1181984,
			"uri": "CupBooks.bin"
		}
	]
}
